# xmcd CD database file
#
# Track frame offsets:
#	150
#	24671
#	38824
#	59137
#	65265
#	99659
#	128305
#	155289
#	169573
#	199275
#	226945
#	254202
#	268951
#	293935
#	302989
#	325770
#
# Disc length: 4514 seconds
#
# Revision: 4
# Processed by: cddbd v1.5.1PL0 Copyright (c) Steve Scherf et al.
# Submitted via: CDex 1.51
#
DISCID=eb11a010
DTITLE=Taraf de Haidouks - Bandits d'honneur, chevaux magiques et mauvais oeil
DYEAR=1994
DGENRE=Other
TTITLE0=Spune spune mos batrin
TTITLE1=Hora din caval
TTITLE2=Azi eram frumoasa juna
TTITLE3=Tiganeasca
TTITLE4=Cind eram la '48
TTITLE5=Geamparalele
TTITLE6=Cintec de dragoste si joc
TTITLE7=Doina si cintec
TTITLE8=Jalea tiganilor
TTITLE9=Turceasca
TTITLE10=Balada lui Corbea
TTITLE11=Sirba
TTITLE12=De ma deie but te pau
TTITLE13=Briu
TTITLE14=Duba, duba .. si hora
TTITLE15=Lelita circiumareasa
EXTD=YEAR: 1994
EXTT0=
EXTT1=
EXTT2=
EXTT3=
EXTT4=
EXTT5=
EXTT6=
EXTT7=
EXTT8=
EXTT9=
EXTT10=
EXTT11=
EXTT12=
EXTT13=
EXTT14=
EXTT15=
PLAYORDER=
